<?xml version="1.0" encoding="UTF-8" standalone="no"?><!DOCTYPE svg PUBLIC "-//W3C//DTD SVG 1.1//EN" "http://www.w3.org/Graphics/SVG/1.1/DTD/svg11.dtd"><svg width="100%" height="100%" viewBox="0 0 165 98" version="1.1" xmlns="http://www.w3.org/2000/svg" xmlns:xlink="http://www.w3.org/1999/xlink" xml:space="preserve" xmlns:serif="http://www.serif.com/" style="fill-rule:evenodd;clip-rule:evenodd;stroke-linejoin:round;stroke-miterlimit:2;"><g><path d="M13.909,17.156l0.046,-8.24c0,-0.419 0,-1.42 0.023,-2.933c-0.298,1.42 -0.549,2.421 -0.687,2.979l-2.036,8.194l-3.683,0l-2.058,-8.008c-0.229,-0.907 -0.435,-1.955 -0.664,-3.165c0.045,1.443 0.069,2.467 0.069,3.096l0,8.077l-4.782,0l0,-16.737l6.429,0l2.287,8.357c0.046,0.209 0.229,1.024 0.549,2.444c0.229,-1.21 0.412,-2.025 0.526,-2.421l2.334,-8.38l6.428,0l0,16.737l-4.781,0Z" style="fill:#9ea4a7;fill-rule:nonzero;"/><path d="M22.258,17.156l0,-12.361l4.873,0l0,12.361l-4.873,0Zm0,-13.618l0,-3.538l4.873,0l0,3.538l-4.873,0Z" style="fill:#9ea4a7;fill-rule:nonzero;"/><path d="M38.752,17.156l0,-6.401c0,-1.7 -0.32,-2.468 -1.647,-2.468c-1.212,0 -1.807,0.815 -1.807,2.491l0,6.378l-4.826,0l0,-12.361l4.392,0l0,1.816c1.12,-1.443 2.493,-2.142 4.254,-2.142c1.487,0 2.654,0.513 3.455,1.49c0.937,1.141 1.006,2.631 1.006,4.772l0,6.425l-4.827,0Z" style="fill:#9ea4a7;fill-rule:nonzero;"/><path d="M46.814,17.156l0,-12.361l4.872,0l0,12.361l-4.872,0Zm0,-13.618l0,-3.538l4.872,0l0,3.538l-4.872,0Z" style="fill:#9ea4a7;fill-rule:nonzero;"/><path d="M60.425,17.599c-3.935,0 -5.994,-1.444 -6.199,-4.33l4.689,0c0,1.047 0.526,1.559 1.579,1.559c1.029,0 1.578,-0.372 1.578,-1.024c0,-0.884 -0.686,-0.978 -2.036,-1.28c-3.752,-0.815 -5.49,-1.49 -5.49,-4.097c0,-2.631 2.036,-4.074 5.97,-4.074c3.638,0 5.628,1.327 5.925,3.888l-4.346,0c-0.069,-0.722 -0.664,-1.211 -1.533,-1.211c-0.869,0 -1.304,0.326 -1.304,0.861c0,0.885 0.801,0.885 2.311,1.234c3.614,0.838 5.284,1.513 5.284,4.19c0,2.817 -2.174,4.284 -6.428,4.284Z" style="fill:#9ea4a7;fill-rule:nonzero;"/><path d="M74.105,17.366c-2.997,0 -4.118,-0.862 -4.118,-3.539l0,-6.192l-1.715,0l0,-2.84l1.715,0l0,-3.817l4.804,0l0,3.817l2.265,0l0,2.84l-2.265,0l0,4.935c0,0.885 0.458,1.141 1.624,1.141c0.206,0 0.435,0 0.687,-0.023l0,3.561c-1.052,0.07 -2.059,0.117 -2.997,0.117Z" style="fill:#9ea4a7;fill-rule:nonzero;"/><path d="M85.702,7.286c-1.257,0 -2.036,0.838 -2.104,2.305l4.301,0c-0.091,-1.537 -0.824,-2.305 -2.197,-2.305Zm-2.104,4.772c0.046,1.583 0.847,2.468 2.242,2.468c0.937,0 1.579,-0.373 1.807,-1.024l4.621,0c-0.663,2.677 -2.951,4.097 -6.702,4.097c-4.21,0 -6.795,-2.584 -6.795,-6.518c0,-4.144 2.654,-6.728 6.978,-6.728c4.3,0 6.909,2.747 6.909,7.403l0,0.302l-9.06,0Z" style="fill:#9ea4a7;fill-rule:nonzero;"/><path d="M102.379,9.311c-1.943,0 -2.836,0.862 -2.836,2.771l0,5.074l-4.85,0l0,-12.361l4.462,0l0,2.258c0.639,-1.815 1.807,-2.584 3.773,-2.584l0.435,0l0,4.912c-0.366,-0.046 -0.686,-0.07 -0.984,-0.07Z" style="fill:#9ea4a7;fill-rule:nonzero;"/><path d="M111.164,17.599c-3.935,0 -5.993,-1.444 -6.199,-4.33l4.689,0c0,1.047 0.526,1.559 1.579,1.559c1.029,0 1.579,-0.372 1.579,-1.024c0,-0.884 -0.687,-0.978 -2.037,-1.28c-3.752,-0.815 -5.491,-1.49 -5.491,-4.097c0,-2.631 2.037,-4.074 5.971,-4.074c3.638,0 5.628,1.327 5.925,3.888l-4.346,0c-0.068,-0.722 -0.664,-1.211 -1.532,-1.211c-0.87,0 -1.305,0.326 -1.305,0.861c0,0.885 0.802,0.885 2.311,1.234c3.614,0.838 5.284,1.513 5.284,4.19c0,2.817 -2.173,4.284 -6.428,4.284Z" style="fill:#9ea4a7;fill-rule:nonzero;"/><path d="M124.913,17.366c-2.996,0 -4.117,-0.862 -4.117,-3.539l0,-6.192l-1.716,0l0,-2.84l1.716,0l0,-3.817l4.804,0l0,3.817l2.265,0l0,2.84l-2.265,0l0,4.935c0,0.885 0.458,1.141 1.624,1.141c0.206,0 0.435,0 0.687,-0.023l0,3.561c-1.053,0.07 -2.059,0.117 -2.998,0.117Z" style="fill:#9ea4a7;fill-rule:nonzero;"/><path d="M146.531,17.156l-4.735,0l-1.762,-7.146l-1.761,7.146l-4.735,0l-4.003,-12.361l4.781,0l1.807,7.543l1.875,-7.543l4.073,0l1.875,7.543l1.807,-7.543l4.598,0l-3.82,12.361Z" style="fill:#9ea4a7;fill-rule:nonzero;"/><path d="M157.671,7.775c-1.464,0 -1.99,1.001 -1.99,3.189c0,2.188 0.526,3.213 1.99,3.213c1.464,0 2.013,-1.025 2.013,-3.213c0,-2.188 -0.549,-3.189 -2.013,-3.189Zm0,9.824c-4.277,0 -6.863,-2.538 -6.863,-6.635c0,-4.097 2.586,-6.611 6.863,-6.611c4.278,0 6.863,2.514 6.863,6.611c0,4.097 -2.585,6.635 -6.863,6.635Z" style="fill:#9ea4a7;fill-rule:nonzero;"/><path d="M14.354,45.672l-5.436,-9.05l-1.76,1.854l0,7.196l-7.072,0l0,-22.595l7.072,0l0,7.479l6.393,-7.479l8.276,0l-7.937,8.328l8.957,14.267l-8.493,0Z" style="fill:#b92417;fill-rule:nonzero;"/><path d="M35.46,45.672l0,-2.451c-1.513,1.949 -3.366,2.891 -5.744,2.891c-2.007,0 -3.582,-0.691 -4.663,-2.011c-1.266,-1.54 -1.328,-3.583 -1.328,-6.474l0,-8.642l6.516,0l0,8.611c0,2.294 0.432,3.362 2.224,3.362c1.637,0 2.439,-1.131 2.439,-3.394l0,-8.579l6.517,0l0,16.687l-5.961,0Z" style="fill:#b92417;fill-rule:nonzero;"/><rect x="45.559" y="23.077" width="6.578" height="22.595" style="fill:#b92417;fill-rule:nonzero;"/><path d="M62.916,45.955c-4.046,0 -5.56,-1.163 -5.56,-4.777l0,-8.359l-2.316,0l0,-3.834l2.316,0l0,-5.154l6.486,0l0,5.154l3.057,0l0,3.834l-3.057,0l0,6.662c0,1.195 0.618,1.54 2.193,1.54c0.278,0 0.586,0 0.926,-0.031l0,4.808c-1.42,0.094 -2.779,0.157 -4.045,0.157Z" style="fill:#b92417;fill-rule:nonzero;"/><path d="M81.63,45.672l0,-2.451c-1.513,1.949 -3.366,2.891 -5.745,2.891c-2.007,0 -3.581,-0.691 -4.663,-2.011c-1.266,-1.54 -1.328,-3.583 -1.328,-6.474l0,-8.642l6.517,0l0,8.611c0,2.294 0.432,3.362 2.223,3.362c1.637,0 2.44,-1.131 2.44,-3.394l0,-8.579l6.516,0l0,16.687l-5.96,0Z" style="fill:#b92417;fill-rule:nonzero;"/><path d="M101.981,35.082c-2.624,0 -3.829,1.163 -3.829,3.739l0,6.851l-6.547,0l0,-16.687l6.022,0l0,3.048c0.865,-2.451 2.44,-3.488 5.096,-3.488l0.587,0l0,6.631c-0.494,-0.063 -0.926,-0.094 -1.329,-0.094Z" style="fill:#b92417;fill-rule:nonzero;"/><path d="M118.21,45.578c-0.834,2.577 -1.451,4.431 -2.439,5.405c-1.266,1.289 -2.872,1.383 -5.158,1.383c-0.772,0 -1.883,-0.032 -3.305,-0.126l0,-4.934l1.853,0c1.205,0 1.792,-0.377 1.792,-1.414c0,-0.471 -0.124,-1.005 -0.34,-1.634l-5.497,-15.273l6.608,0l2.873,10.119l2.779,-10.119l6.146,0l-5.312,16.593Z" style="fill:#b92417;fill-rule:nonzero;"/><path d="M0,69.533l0,-12.362l4.873,0l0,12.362l-4.873,0Zm0,-13.618l0,-3.538l4.873,0l0,3.538l-4.873,0Z" style="fill:#9ea4a7;fill-rule:nonzero;"/><path d="M22.625,57.032l-1.487,0l0,8.264l1.418,0c2.608,0 3.5,-1.001 3.5,-4.12c0,-3.026 -0.938,-4.144 -3.431,-4.144Zm4.529,11.802c-1.395,0.652 -3.34,0.699 -5.902,0.699l-5.398,0l0,-16.737l6.382,0c2.357,0 4.186,0.069 5.696,0.954c2.288,1.35 3.432,3.818 3.432,7.426c0,3.794 -1.442,6.401 -4.21,7.658Z" style="fill:#9ea4a7;fill-rule:nonzero;"/><path d="M32.818,69.533l0,-3.33l5.536,-5.423l-5.055,0l0,-3.609l10.751,0l0,3.306l-5.398,5.447l5.673,0l0,3.609l-11.507,0Z" style="fill:#9ea4a7;fill-rule:nonzero;"/><path d="M46.475,69.533l0,-12.362l4.873,0l0,12.362l-4.873,0Zm0,-13.618l0,-3.538l4.873,0l0,3.538l-4.873,0Z" style="fill:#9ea4a7;fill-rule:nonzero;"/><path d="M60.681,59.663c-1.257,0 -2.036,0.838 -2.104,2.304l4.3,0c-0.091,-1.536 -0.823,-2.304 -2.196,-2.304Zm-2.104,4.772c0.046,1.583 0.847,2.467 2.241,2.467c0.939,0 1.579,-0.372 1.808,-1.024l4.621,0c-0.664,2.677 -2.951,4.096 -6.703,4.096c-4.209,0 -6.794,-2.583 -6.794,-6.517c0,-4.143 2.654,-6.727 6.977,-6.727c4.301,0 6.909,2.746 6.909,7.402l0,0.303l-9.059,0Z" style="fill:#9ea4a7;fill-rule:nonzero;"/><path d="M76.146,60.617c-1.351,0 -1.968,0.931 -1.968,2.863c0,1.839 0.755,2.864 1.968,2.864c1.212,0 1.99,-1.025 1.99,-2.864c0,-1.932 -0.641,-2.863 -1.99,-2.863Zm2.378,8.916l0,-1.513c-1.052,1.327 -2.356,1.954 -3.98,1.954c-3.065,0 -5.215,-2.536 -5.215,-6.563c0,-4.028 2.195,-6.612 5.17,-6.612c1.463,0 2.63,0.559 3.591,1.7l0,-5.703l4.712,0l0,16.737l-4.278,0Z" style="fill:#9ea4a7;fill-rule:nonzero;"/><path d="M84.701,69.533l0,-3.33l5.535,-5.423l-5.054,0l0,-3.609l10.751,0l0,3.306l-5.399,5.447l5.673,0l0,3.609l-11.506,0Z" style="fill:#9ea4a7;fill-rule:nonzero;"/><path d="M98.358,69.533l0,-12.362l4.873,0l0,12.362l-4.873,0Zm0,-13.618l0,-3.538l4.873,0l0,3.538l-4.873,0Z" style="fill:#9ea4a7;fill-rule:nonzero;"/><path d="M112.009,69.974c-4.347,0 -6.978,-2.583 -6.978,-6.633c0,-4.098 2.631,-6.611 6.932,-6.611c3.957,0 6.474,2.048 6.588,5.144l-4.827,0c-0.091,-1.164 -0.663,-1.722 -1.785,-1.722c-1.417,0 -2.036,1.024 -2.036,3.189c0,2.188 0.596,3.212 1.991,3.212c1.121,0 1.762,-0.629 1.877,-1.839l4.826,0c-0.206,3.235 -2.677,5.26 -6.588,5.26Z" style="fill:#9ea4a7;fill-rule:nonzero;"/><path d="M125.62,69.742c-2.997,0 -4.118,-0.861 -4.118,-3.539l0,-6.191l-1.715,0l0,-2.841l1.715,0l0,-3.817l4.805,0l0,3.817l2.264,0l0,2.841l-2.264,0l0,4.935c0,0.885 0.456,1.141 1.624,1.141c0.205,0 0.434,0 0.685,-0.024l0,3.562c-1.051,0.069 -2.058,0.116 -2.996,0.116Z" style="fill:#9ea4a7;fill-rule:nonzero;"/><path d="M146.942,69.533l-4.735,0l-1.762,-7.147l-1.761,7.147l-4.734,0l-4.004,-12.362l4.781,0l1.807,7.543l1.876,-7.543l4.072,0l1.876,7.543l1.807,-7.543l4.597,0l-3.82,12.362Z" style="fill:#9ea4a7;fill-rule:nonzero;"/><path d="M159.616,64.016c-2.241,0.861 -3.66,0.698 -3.66,1.885c0,0.699 0.481,1.118 1.373,1.118c1.625,0 2.309,-0.745 2.309,-2.375c0,-0.209 0,-0.419 -0.022,-0.628Zm0.435,5.517l-0.297,-1.187c-1.236,1.117 -2.632,1.628 -4.415,1.628c-2.769,0 -4.301,-1.443 -4.301,-3.933c0,-2.747 1.692,-3.515 5.284,-3.981c2.334,-0.302 3.339,-0.186 3.339,-1.326c0,-0.722 -0.571,-1.025 -1.738,-1.025c-1.006,0 -1.533,0.395 -1.624,1.234l-4.713,0c0.046,-2.77 2.242,-4.213 6.497,-4.213c2.22,0 3.912,0.488 4.736,1.047c1.281,0.884 1.555,1.816 1.555,3.468l0,6.891c0,0.442 0.183,0.815 0.526,1.048l0,0.349l-4.849,0Z" style="fill:#9ea4a7;fill-rule:nonzero;"/><path d="M10.592,92.811l-4.621,-7.729c-0.252,-0.418 -0.595,-1.233 -0.961,-2.397c0.137,0.838 0.137,1.606 0.137,2.281l0,7.845l-5.01,0l0,-16.737l5.01,0l4.621,7.775c0.275,0.442 0.595,1.233 0.961,2.397c-0.114,-0.721 -0.137,-1.489 -0.137,-2.281l0,-7.891l5.033,0l0,16.737l-5.033,0Z" style="fill:#9ea4a7;fill-rule:nonzero;"/><path d="M26.422,87.294c-2.241,0.862 -3.66,0.698 -3.66,1.885c0,0.699 0.48,1.118 1.373,1.118c1.624,0 2.31,-0.745 2.31,-2.375c0,-0.209 0,-0.418 -0.023,-0.628Zm0.435,5.517l-0.297,-1.187c-1.236,1.117 -2.631,1.629 -4.416,1.629c-2.768,0 -4.3,-1.443 -4.3,-3.934c0,-2.746 1.692,-3.515 5.284,-3.98c2.333,-0.303 3.34,-0.186 3.34,-1.327c0,-0.722 -0.572,-1.024 -1.739,-1.024c-1.006,0 -1.532,0.395 -1.624,1.233l-4.712,0c0.045,-2.77 2.242,-4.213 6.496,-4.213c2.219,0 3.912,0.489 4.736,1.047c1.281,0.885 1.555,1.816 1.555,3.469l0,6.89c0,0.443 0.183,0.815 0.526,1.048l0,0.349l-4.849,0Z" style="fill:#9ea4a7;fill-rule:nonzero;"/><path d="M41.526,84.966c-1.944,0 -2.837,0.862 -2.837,2.771l0,5.074l-4.85,0l0,-12.361l4.461,0l0,2.258c0.641,-1.815 1.808,-2.584 3.775,-2.584l0.434,0l0,4.912c-0.366,-0.047 -0.686,-0.07 -0.983,-0.07Z" style="fill:#9ea4a7;fill-rule:nonzero;"/><path d="M50.402,83.43c-1.464,0 -1.99,1 -1.99,3.189c0,2.188 0.526,3.213 1.99,3.213c1.464,0 2.013,-1.025 2.013,-3.213c0,-2.189 -0.549,-3.189 -2.013,-3.189Zm0,9.823c-4.278,0 -6.863,-2.537 -6.863,-6.634c0,-4.097 2.585,-6.611 6.863,-6.611c4.278,0 6.863,2.514 6.863,6.611c0,4.097 -2.585,6.634 -6.863,6.634Z" style="fill:#9ea4a7;fill-rule:nonzero;"/><path d="M65.363,83.896c-1.35,0 -1.968,0.931 -1.968,2.862c0,1.839 0.755,2.864 1.968,2.864c1.212,0 1.99,-1.025 1.99,-2.864c0,-1.931 -0.64,-2.862 -1.99,-2.862Zm2.379,8.915l0,-1.513c-1.052,1.326 -2.356,1.955 -3.981,1.955c-3.065,0 -5.215,-2.537 -5.215,-6.564c0,-4.027 2.196,-6.611 5.169,-6.611c1.465,0 2.632,0.559 3.592,1.699l0,-5.703l4.712,0l0,16.737l-4.277,0Z" style="fill:#9ea4a7;fill-rule:nonzero;"/><path d="M80.758,83.43c-1.464,0 -1.99,1 -1.99,3.189c0,2.188 0.526,3.213 1.99,3.213c1.464,0 2.013,-1.025 2.013,-3.213c0,-2.189 -0.549,-3.189 -2.013,-3.189Zm0,9.823c-4.278,0 -6.863,-2.537 -6.863,-6.634c0,-4.097 2.585,-6.611 6.863,-6.611c4.278,0 6.863,2.514 6.863,6.611c0,4.097 -2.585,6.634 -6.863,6.634Z" style="fill:#9ea4a7;fill-rule:nonzero;"/><path d="M104.895,92.811l-4.736,0l-1.762,-7.147l-1.76,7.147l-4.735,0l-4.004,-12.361l4.781,0l1.807,7.542l1.876,-7.542l4.072,0l1.876,7.542l1.807,-7.542l4.598,0l-3.82,12.361Z" style="fill:#9ea4a7;fill-rule:nonzero;"/><path d="M116.104,82.941c-1.258,0 -2.035,0.838 -2.105,2.305l4.301,0c-0.091,-1.537 -0.823,-2.305 -2.196,-2.305Zm-2.105,4.772c0.047,1.583 0.847,2.468 2.243,2.468c0.937,0 1.578,-0.373 1.807,-1.025l4.62,0c-0.662,2.678 -2.95,4.097 -6.703,4.097c-4.208,0 -6.793,-2.583 -6.793,-6.518c0,-4.143 2.654,-6.727 6.977,-6.727c4.3,0 6.908,2.747 6.908,7.402l0,0.303l-9.059,0Z" style="fill:#9ea4a7;fill-rule:nonzero;"/><path d="M131.225,83.756c-1.304,0 -1.945,0.931 -1.945,2.793c0,1.955 0.618,2.933 1.945,2.933c1.419,0 2.035,-0.955 2.035,-2.909c0,-1.816 -0.754,-2.817 -2.035,-2.817Zm-0.092,14.036c-3.477,0 -5.536,-1.373 -5.856,-3.654l4.782,0c0.114,0.605 0.549,0.838 1.417,0.838c1.602,0 1.807,-0.699 1.807,-2.584l0,-0.675c-0.823,0.814 -1.944,1.211 -3.385,1.211c-3.271,0 -5.422,-2.468 -5.422,-6.262c0,-4.074 2.105,-6.542 5.193,-6.542c1.739,0 3.02,0.606 3.98,1.933l0,-1.607l4.279,0l0,11.407c0,4.306 -1.876,5.935 -6.795,5.935Z" style="fill:#9ea4a7;fill-rule:nonzero;"/><path d="M146.461,83.43c-1.465,0 -1.991,1 -1.991,3.189c0,2.188 0.526,3.213 1.991,3.213c1.463,0 2.013,-1.025 2.013,-3.213c0,-2.189 -0.55,-3.189 -2.013,-3.189Zm0,9.823c-4.279,0 -6.864,-2.537 -6.864,-6.634c0,-4.097 2.585,-6.611 6.864,-6.611c4.276,0 6.861,2.514 6.861,6.611c0,4.097 -2.585,6.634 -6.861,6.634Z" style="fill:#9ea4a7;fill-rule:nonzero;"/><rect x="156.851" y="85.401" width="7.391" height="7.39" style="fill:#b92417;"/></g></svg>