<?xml version="1.0" encoding="UTF-8" standalone="no"?><!DOCTYPE svg PUBLIC "-//W3C//DTD SVG 1.1//EN" "http://www.w3.org/Graphics/SVG/1.1/DTD/svg11.dtd"><svg width="100%" height="100%" viewBox="0 0 200 98" version="1.1" xmlns="http://www.w3.org/2000/svg" xmlns:xlink="http://www.w3.org/1999/xlink" xml:space="preserve" xmlns:serif="http://www.serif.com/" style="fill-rule:evenodd;clip-rule:evenodd;stroke-linejoin:round;stroke-miterlimit:2;"><g id="Warstwa-1" serif:id="Warstwa 1"><path d="M111.345,41.658c-0.208,-0.176 -0.432,-0.298 -0.673,-0.366c-0.24,-0.068 -0.474,-0.102 -0.702,-0.102c-0.149,0 -0.299,0.021 -0.448,0.063c-0.15,0.042 -0.283,0.112 -0.4,0.21c-0.117,0.097 -0.213,0.224 -0.288,0.38c-0.074,0.156 -0.112,0.344 -0.112,0.565l0,1.96c0,0.221 0.038,0.408 0.112,0.561c0.075,0.153 0.173,0.278 0.293,0.375c0.12,0.098 0.253,0.169 0.4,0.215c0.146,0.045 0.294,0.068 0.443,0.068c0.228,0 0.457,-0.033 0.688,-0.098c0.23,-0.065 0.463,-0.188 0.697,-0.37l0.633,1.033c-0.247,0.208 -0.549,0.371 -0.906,0.488c-0.358,0.117 -0.735,0.175 -1.131,0.175c-0.319,0 -0.631,-0.045 -0.936,-0.136c-0.306,-0.091 -0.579,-0.226 -0.819,-0.405c-0.241,-0.179 -0.436,-0.403 -0.585,-0.673c-0.15,-0.269 -0.224,-0.586 -0.224,-0.95l0,-2.516c0,-0.357 0.073,-0.671 0.219,-0.94c0.146,-0.27 0.338,-0.496 0.575,-0.678c0.237,-0.182 0.509,-0.318 0.814,-0.409c0.306,-0.092 0.618,-0.137 0.936,-0.137c0.39,0 0.765,0.052 1.126,0.156c0.361,0.104 0.671,0.27 0.931,0.497l-0.643,1.034Zm1.531,-1.628l4.631,0l0,1.199l-3.296,0l0,1.54l2.818,0l0,1.199l-2.818,0l0,1.59l3.296,0l0,1.189l-4.631,0l0,-6.717Zm6.951,2.486l0,4.231l-1.326,0l0,-6.717l1.209,0l1.56,2.3l1.277,1.95l0.039,0l0,-4.25l1.336,0l0,6.717l-1.218,0l-1.707,-2.535l-1.111,-1.696l-0.059,0Zm7.907,-1.278l0,5.509l-1.335,0l0,-5.509l-1.785,0l0,-1.208l4.895,0l0,1.208l-1.775,0Zm5.46,-1.208c0.338,0 0.629,0.063 0.873,0.19c0.244,0.126 0.445,0.29 0.604,0.492c0.16,0.201 0.277,0.427 0.351,0.678c0.075,0.25 0.112,0.495 0.112,0.736c0,0.175 -0.024,0.356 -0.073,0.541c-0.049,0.185 -0.12,0.36 -0.214,0.526c-0.094,0.166 -0.21,0.319 -0.346,0.459c-0.137,0.139 -0.293,0.255 -0.468,0.346l1.209,2.749l-1.443,0c-0.026,-0.071 -0.067,-0.174 -0.122,-0.307c-0.056,-0.133 -0.117,-0.281 -0.185,-0.444c-0.069,-0.162 -0.14,-0.333 -0.215,-0.512c-0.075,-0.178 -0.146,-0.349 -0.215,-0.511c-0.068,-0.163 -0.129,-0.311 -0.185,-0.444c-0.055,-0.133 -0.099,-0.236 -0.131,-0.307l-1.209,0l0,2.525l-1.336,0l0,-6.717l2.993,0Zm-1.657,2.983l1.355,0c0.312,0 0.546,-0.083 0.702,-0.249c0.156,-0.165 0.234,-0.378 0.234,-0.638c0,-0.26 -0.08,-0.475 -0.239,-0.644c-0.159,-0.169 -0.392,-0.253 -0.697,-0.253l-1.355,0l0,1.784Zm9.603,1.599c0,0.364 -0.071,0.682 -0.214,0.955c-0.143,0.273 -0.335,0.502 -0.575,0.688c-0.241,0.185 -0.517,0.325 -0.829,0.419c-0.312,0.094 -0.634,0.141 -0.966,0.141c-0.331,0 -0.653,-0.045 -0.965,-0.136c-0.312,-0.091 -0.586,-0.228 -0.824,-0.41c-0.237,-0.182 -0.427,-0.407 -0.57,-0.677c-0.143,-0.27 -0.214,-0.587 -0.214,-0.951l0,-4.611l1.326,0l0,4.358c0,0.221 0.035,0.408 0.107,0.56c0.071,0.153 0.166,0.278 0.283,0.376c0.117,0.097 0.25,0.169 0.399,0.214c0.15,0.046 0.303,0.068 0.458,0.068c0.15,0 0.3,-0.022 0.449,-0.068c0.15,-0.045 0.283,-0.117 0.4,-0.214c0.117,-0.098 0.211,-0.223 0.283,-0.376c0.071,-0.152 0.107,-0.339 0.107,-0.56l0,-4.358l1.345,0l0,4.582Zm6.26,-1.472l-0.624,1.238l-0.761,1.443l-0.965,0l-0.751,-1.414l-0.653,-1.267l-0.039,0l0,3.607l-1.326,0l0,-6.717l1.229,0l1.199,2.369l0.809,1.657l0.059,0l0.818,-1.696l1.151,-2.33l1.228,0l0,6.717l-1.335,0l0,-3.607l-0.039,0Zm6.542,-3.11l0,6.717l-1.336,0l0,-6.717l1.336,0Zm2.691,2.486l0,4.231l-1.326,0l0,-6.717l1.209,0l1.56,2.3l1.277,1.95l0.039,0l0,-4.25l1.336,0l0,6.717l-1.219,0l-1.706,-2.535l-1.112,-1.696l-0.058,0Zm6.786,-2.486l0,6.717l-1.336,0l0,-6.717l1.336,0Zm5.304,1.628c-0.208,-0.176 -0.433,-0.298 -0.673,-0.366c-0.241,-0.068 -0.475,-0.102 -0.702,-0.102c-0.15,0 -0.299,0.021 -0.448,0.063c-0.15,0.042 -0.283,0.112 -0.4,0.21c-0.117,0.097 -0.213,0.224 -0.288,0.38c-0.075,0.156 -0.112,0.344 -0.112,0.565l0,1.96c0,0.221 0.037,0.408 0.112,0.561c0.075,0.153 0.172,0.278 0.293,0.375c0.12,0.098 0.253,0.169 0.399,0.215c0.147,0.045 0.294,0.068 0.444,0.068c0.227,0 0.457,-0.033 0.687,-0.098c0.231,-0.065 0.463,-0.188 0.697,-0.37l0.634,1.033c-0.247,0.208 -0.549,0.371 -0.906,0.488c-0.358,0.117 -0.735,0.175 -1.132,0.175c-0.318,0 -0.63,-0.045 -0.935,-0.136c-0.306,-0.091 -0.579,-0.226 -0.82,-0.405c-0.24,-0.179 -0.435,-0.403 -0.585,-0.673c-0.149,-0.269 -0.224,-0.586 -0.224,-0.95l0,-2.516c0,-0.357 0.073,-0.671 0.22,-0.94c0.146,-0.27 0.338,-0.496 0.575,-0.678c0.237,-0.182 0.508,-0.318 0.814,-0.409c0.305,-0.092 0.617,-0.137 0.936,-0.137c0.39,0 0.765,0.052 1.126,0.156c0.361,0.104 0.671,0.27 0.931,0.497l-0.643,1.034Zm5.45,2.983c0,0.364 -0.067,0.681 -0.2,0.951c-0.133,0.27 -0.311,0.494 -0.531,0.672c-0.221,0.179 -0.477,0.314 -0.766,0.405c-0.289,0.091 -0.586,0.137 -0.892,0.137c-0.377,0 -0.752,-0.051 -1.126,-0.152c-0.374,-0.1 -0.687,-0.255 -0.941,-0.463l0.624,-1.033c0.228,0.169 0.445,0.284 0.653,0.346c0.208,0.062 0.413,0.093 0.615,0.093c0.175,0 0.338,-0.021 0.487,-0.064c0.15,-0.042 0.278,-0.114 0.385,-0.214c0.107,-0.101 0.192,-0.233 0.254,-0.395c0.061,-0.163 0.092,-0.364 0.092,-0.605l0,-4.289l1.346,0l0,4.611Zm4.962,0.722l-2.34,0l-0.438,1.384l-1.424,0l2.36,-6.717l1.365,0l2.34,6.717l-1.453,0l-0.41,-1.384Zm-1.979,-1.122l1.619,0l-0.264,-0.858l-0.526,-1.774l-0.039,0l-0.517,1.745l-0.273,0.887Zm6.581,-3.003l0,5.509l-1.335,0l0,-5.509l-1.784,0l0,-1.208l4.894,0l0,1.208l-1.775,0Zm4.739,1.599l0.565,-1.306l0.673,-1.501l1.424,0l-2.028,4.085l0,2.632l-1.336,0l0,-2.632l-2.048,-4.085l1.434,0l0.692,1.54l0.556,1.267l0.068,0Zm7.156,-0.526l-0.478,1.911l-0.624,2.525l-1.472,0l-1.716,-6.717l1.424,0l0.585,2.651l0.448,2.077l0.068,0l0.517,-2.096l0.663,-2.632l1.248,0l0.702,2.768l0.488,1.96l0.058,0l0.419,-1.979l0.614,-2.749l1.424,0l-1.736,6.717l-1.452,0l-0.624,-2.535l-0.488,-1.901l-0.068,0Zm-86.9,11.427l0,4.231l-1.326,0l0,-6.718l1.209,0l1.56,2.301l1.277,1.95l0.039,0l0,-4.251l1.336,0l0,6.718l-1.219,0l-1.706,-2.535l-1.112,-1.696l-0.058,0Zm8.941,2.846l-2.34,0l-0.439,1.385l-1.424,0l2.36,-6.718l1.365,0l2.34,6.718l-1.453,0l-0.409,-1.385Zm-1.98,-1.121l1.619,0l-0.264,-0.858l-0.526,-1.774l-0.039,0l-0.517,1.745l-0.273,0.887Zm9.974,-4.212c0.338,0 0.629,0.064 0.873,0.19c0.244,0.127 0.445,0.291 0.604,0.493c0.16,0.201 0.277,0.427 0.352,0.677c0.074,0.251 0.112,0.496 0.112,0.737c0,0.175 -0.025,0.355 -0.074,0.541c-0.048,0.185 -0.12,0.36 -0.214,0.526c-0.094,0.166 -0.21,0.319 -0.346,0.458c-0.137,0.14 -0.293,0.255 -0.468,0.347l1.209,2.749l-1.443,0c-0.026,-0.071 -0.067,-0.174 -0.122,-0.307c-0.055,-0.133 -0.117,-0.281 -0.185,-0.444c-0.069,-0.162 -0.14,-0.333 -0.215,-0.512c-0.075,-0.178 -0.146,-0.349 -0.214,-0.511c-0.069,-0.163 -0.13,-0.311 -0.185,-0.444c-0.056,-0.133 -0.1,-0.236 -0.132,-0.307l-1.209,0l0,2.525l-1.336,0l0,-6.718l2.993,0Zm-1.657,2.984l1.355,0c0.312,0 0.546,-0.083 0.702,-0.249c0.156,-0.166 0.234,-0.378 0.234,-0.638c0,-0.261 -0.08,-0.475 -0.239,-0.644c-0.159,-0.169 -0.391,-0.253 -0.697,-0.253l-1.355,0l0,1.784Zm4.192,2.583l3.032,-4.377l-2.905,0l0,-1.19l4.514,0l0,1.112l-3.071,4.417l3.071,0l0,1.189l-4.641,0l0,-1.151Zm5.538,-5.567l4.631,0l0,1.2l-3.295,0l0,1.54l2.818,0l0,1.199l-2.818,0l0,1.59l3.295,0l0,1.189l-4.631,0l0,-6.718Zm9.565,1.629c-0.208,-0.176 -0.432,-0.298 -0.673,-0.366c-0.24,-0.068 -0.475,-0.102 -0.702,-0.102c-0.149,0 -0.299,0.021 -0.448,0.063c-0.15,0.042 -0.283,0.112 -0.4,0.21c-0.117,0.097 -0.213,0.224 -0.288,0.38c-0.074,0.156 -0.112,0.344 -0.112,0.565l0,1.96c0,0.221 0.038,0.408 0.112,0.561c0.075,0.152 0.172,0.277 0.293,0.375c0.12,0.097 0.253,0.169 0.399,0.214c0.147,0.046 0.295,0.069 0.444,0.069c0.227,0 0.457,-0.033 0.688,-0.098c0.23,-0.065 0.462,-0.188 0.697,-0.37l0.633,1.033c-0.247,0.208 -0.549,0.371 -0.906,0.488c-0.358,0.117 -0.735,0.175 -1.131,0.175c-0.319,0 -0.631,-0.045 -0.936,-0.136c-0.306,-0.091 -0.579,-0.226 -0.819,-0.405c-0.241,-0.179 -0.436,-0.403 -0.585,-0.673c-0.15,-0.269 -0.225,-0.586 -0.225,-0.95l0,-2.516c0,-0.357 0.073,-0.671 0.22,-0.941c0.146,-0.269 0.338,-0.495 0.575,-0.677c0.237,-0.182 0.508,-0.319 0.814,-0.41c0.305,-0.091 0.617,-0.136 0.936,-0.136c0.39,0 0.765,0.052 1.126,0.156c0.361,0.104 0.671,0.27 0.931,0.497l-0.643,1.034Zm1.258,3.938l3.032,-4.377l-2.906,0l0,-1.19l4.514,0l0,1.112l-3.071,4.417l3.071,0l0,1.189l-4.64,0l0,-1.151Zm10.997,-5.567c0.338,0 0.629,0.064 0.873,0.19c0.244,0.127 0.445,0.291 0.604,0.493c0.16,0.201 0.277,0.427 0.351,0.677c0.075,0.251 0.112,0.496 0.112,0.737c0,0.175 -0.024,0.355 -0.073,0.541c-0.049,0.185 -0.12,0.36 -0.214,0.526c-0.094,0.166 -0.21,0.319 -0.346,0.458c-0.137,0.14 -0.293,0.255 -0.468,0.347l1.209,2.749l-1.443,0c-0.026,-0.071 -0.067,-0.174 -0.122,-0.307c-0.056,-0.133 -0.117,-0.281 -0.185,-0.444c-0.069,-0.162 -0.14,-0.333 -0.215,-0.512c-0.075,-0.178 -0.146,-0.349 -0.215,-0.511c-0.068,-0.163 -0.129,-0.311 -0.185,-0.444c-0.055,-0.133 -0.099,-0.236 -0.131,-0.307l-1.209,0l0,2.525l-1.336,0l0,-6.718l2.993,0Zm-1.657,2.984l1.355,0c0.312,0 0.546,-0.083 0.702,-0.249c0.156,-0.166 0.234,-0.378 0.234,-0.638c0,-0.261 -0.08,-0.475 -0.239,-0.644c-0.159,-0.169 -0.392,-0.253 -0.697,-0.253l-1.355,0l0,1.784Zm9.574,1.589c0,0.364 -0.068,0.683 -0.205,0.956c-0.136,0.272 -0.322,0.503 -0.555,0.692c-0.235,0.188 -0.509,0.33 -0.824,0.424c-0.316,0.094 -0.649,0.141 -1,0.141c-0.351,0 -0.684,-0.047 -0.999,-0.141c-0.315,-0.094 -0.59,-0.236 -0.824,-0.424c-0.234,-0.189 -0.419,-0.42 -0.556,-0.692c-0.136,-0.273 -0.204,-0.592 -0.204,-0.956l0,-2.467c0,-0.357 0.071,-0.672 0.214,-0.945c0.143,-0.274 0.335,-0.501 0.575,-0.683c0.241,-0.182 0.517,-0.319 0.829,-0.409c0.312,-0.091 0.634,-0.137 0.965,-0.137c0.332,0 0.654,0.049 0.966,0.146c0.311,0.098 0.588,0.239 0.828,0.424c0.241,0.186 0.432,0.416 0.575,0.693c0.143,0.276 0.215,0.593 0.215,0.95l0,2.428Zm-1.346,-2.194c0,-0.221 -0.035,-0.408 -0.107,-0.56c-0.071,-0.153 -0.165,-0.278 -0.282,-0.376c-0.117,-0.097 -0.249,-0.169 -0.395,-0.214c-0.147,-0.046 -0.298,-0.068 -0.454,-0.068c-0.156,0 -0.309,0.022 -0.458,0.068c-0.15,0.045 -0.283,0.117 -0.4,0.214c-0.117,0.098 -0.211,0.223 -0.283,0.376c-0.071,0.152 -0.107,0.339 -0.107,0.56l0,1.96c0,0.221 0.036,0.41 0.107,0.565c0.072,0.157 0.166,0.283 0.283,0.381c0.117,0.097 0.25,0.167 0.4,0.209c0.149,0.043 0.302,0.064 0.458,0.064c0.156,0 0.307,-0.021 0.454,-0.064c0.146,-0.042 0.278,-0.112 0.395,-0.209c0.117,-0.098 0.211,-0.224 0.282,-0.381c0.072,-0.155 0.107,-0.344 0.107,-0.565l0,-1.96Zm2.185,3.188l3.032,-4.377l-2.906,0l0,-1.19l4.514,0l0,1.112l-3.071,4.417l3.071,0l0,1.189l-4.64,0l0,-1.151Zm9.34,-3.285l-0.478,1.911l-0.624,2.525l-1.472,0l-1.716,-6.718l1.423,0l0.585,2.652l0.449,2.077l0.068,0l0.517,-2.096l0.663,-2.633l1.248,0l0.702,2.769l0.487,1.96l0.059,0l0.419,-1.979l0.614,-2.75l1.424,0l-1.736,6.718l-1.452,0l-0.624,-2.535l-0.488,-1.901l-0.068,0Zm10.159,2.291c0,0.364 -0.068,0.683 -0.205,0.956c-0.136,0.272 -0.322,0.503 -0.555,0.692c-0.234,0.188 -0.509,0.33 -0.824,0.424c-0.315,0.094 -0.649,0.141 -1,0.141c-0.351,0 -0.684,-0.047 -0.999,-0.141c-0.315,-0.094 -0.59,-0.236 -0.824,-0.424c-0.234,-0.189 -0.419,-0.42 -0.556,-0.692c-0.136,-0.273 -0.204,-0.592 -0.204,-0.956l0,-2.467c0,-0.357 0.071,-0.672 0.214,-0.945c0.143,-0.274 0.335,-0.501 0.575,-0.683c0.241,-0.182 0.517,-0.319 0.829,-0.409c0.312,-0.091 0.634,-0.137 0.965,-0.137c0.332,0 0.654,0.049 0.966,0.146c0.311,0.098 0.588,0.239 0.828,0.424c0.241,0.186 0.432,0.416 0.575,0.693c0.144,0.276 0.215,0.593 0.215,0.95l0,2.428Zm-1.345,-2.194c0,-0.221 -0.036,-0.408 -0.108,-0.56c-0.071,-0.153 -0.165,-0.278 -0.282,-0.376c-0.117,-0.097 -0.249,-0.169 -0.395,-0.214c-0.147,-0.046 -0.298,-0.068 -0.454,-0.068c-0.156,0 -0.308,0.022 -0.458,0.068c-0.149,0.045 -0.283,0.117 -0.4,0.214c-0.117,0.098 -0.211,0.223 -0.282,0.376c-0.072,0.152 -0.108,0.339 -0.108,0.56l0,1.96c0,0.221 0.036,0.41 0.108,0.565c0.071,0.157 0.165,0.283 0.282,0.381c0.117,0.097 0.251,0.167 0.4,0.209c0.15,0.043 0.302,0.064 0.458,0.064c0.156,0 0.307,-0.021 0.454,-0.064c0.146,-0.042 0.278,-0.112 0.395,-0.209c0.117,-0.098 0.211,-0.224 0.282,-0.381c0.072,-0.155 0.108,-0.344 0.108,-0.565l0,-1.96Zm6.376,2.233c0,0.364 -0.067,0.681 -0.2,0.951c-0.133,0.269 -0.31,0.494 -0.531,0.672c-0.221,0.179 -0.476,0.314 -0.766,0.405c-0.289,0.091 -0.586,0.136 -0.892,0.136c-0.377,0 -0.752,-0.05 -1.126,-0.151c-0.373,-0.101 -0.687,-0.255 -0.941,-0.463l0.624,-1.033c0.228,0.169 0.446,0.284 0.653,0.346c0.209,0.062 0.413,0.092 0.615,0.092c0.175,0 0.338,-0.021 0.487,-0.063c0.15,-0.042 0.278,-0.114 0.385,-0.214c0.108,-0.101 0.192,-0.233 0.254,-0.395c0.062,-0.163 0.093,-0.364 0.093,-0.605l0,-4.29l1.345,0l0,4.612Zm6.415,-0.029c0,0.364 -0.071,0.682 -0.214,0.955c-0.143,0.273 -0.335,0.502 -0.575,0.688c-0.241,0.185 -0.517,0.325 -0.829,0.419c-0.312,0.094 -0.634,0.141 -0.965,0.141c-0.332,0 -0.654,-0.045 -0.966,-0.136c-0.311,-0.091 -0.586,-0.228 -0.823,-0.41c-0.238,-0.182 -0.428,-0.408 -0.571,-0.677c-0.143,-0.27 -0.214,-0.587 -0.214,-0.951l0,-4.612l1.326,0l0,4.359c0,0.221 0.035,0.407 0.107,0.56c0.071,0.153 0.166,0.278 0.283,0.375c0.117,0.098 0.25,0.169 0.399,0.215c0.15,0.046 0.303,0.068 0.459,0.068c0.149,0 0.299,-0.022 0.448,-0.068c0.15,-0.046 0.283,-0.117 0.4,-0.215c0.117,-0.097 0.211,-0.222 0.283,-0.375c0.071,-0.153 0.107,-0.339 0.107,-0.56l0,-4.359l1.345,0l0,4.583Z" style="fill:#231f20;fill-rule:nonzero;"/><path d="M47.679,0c23.873,0 43.745,17.118 48.021,39.748c-0.048,-0.038 -0.097,-0.076 -0.146,-0.114c-0.889,-0.687 -1.925,-1.22 -3.096,-1.599c-1.177,-0.378 -2.495,-0.574 -3.949,-0.58c-1.242,0.006 -2.414,0.16 -3.526,0.468c-1.107,0.308 -2.119,0.74 -3.037,1.303c-0.918,0.556 -1.707,1.207 -2.372,1.959c-0.689,0.693 -1.248,1.445 -1.678,2.268c-0.424,0.822 -0.736,1.687 -0.93,2.587c-0.194,0.905 -0.288,1.817 -0.288,2.747c-0.006,0.965 0.094,1.936 0.294,2.912c0.194,0.977 0.518,1.918 0.954,2.83c0.441,0.912 1.03,1.759 1.754,2.534c0.624,0.669 1.342,1.243 2.16,1.723c0.818,0.479 1.748,0.852 2.778,1.113c1.03,0.26 2.172,0.391 3.432,0.397c1.218,0 2.401,-0.166 3.549,-0.498c1.148,-0.337 2.219,-0.84 3.214,-1.515c0.339,-0.228 0.664,-0.477 0.976,-0.746c-4.089,22.861 -24.073,40.214 -48.11,40.214c-23.287,0 -42.767,-16.286 -47.679,-38.088c0.303,-0.003 0.623,-0.005 0.96,-0.007c1.324,0.006 2.413,0.024 3.261,0.053c0.847,0.03 1.454,0.048 1.824,0.054c0.048,-0.024 0.083,-0.089 0.112,-0.202c0.03,-0.106 0.047,-0.23 0.053,-0.373c0.012,-0.136 0.012,-0.266 -0.006,-0.378c-0.017,-0.113 -0.047,-0.19 -0.088,-0.219c-0.3,-0.036 -0.559,-0.066 -0.771,-0.101c-0.212,-0.03 -0.4,-0.059 -0.577,-0.095c-0.176,-0.035 -0.365,-0.077 -0.559,-0.124c-0.259,-0.065 -0.459,-0.166 -0.606,-0.29c-0.147,-0.13 -0.253,-0.308 -0.318,-0.533c-0.071,-0.225 -0.112,-0.521 -0.135,-0.882c-0.012,-0.349 -0.018,-0.764 -0.024,-1.232c-0.012,-0.473 -0.018,-0.982 -0.023,-1.527c-0.006,-0.545 -0.012,-1.095 -0.018,-1.664c-0.006,-0.562 -0.006,-1.113 -0.006,-1.651c0.006,-0.042 0.024,-0.083 0.059,-0.137c0.035,-0.047 0.059,-0.071 0.082,-0.076l1.413,0c0.212,0.017 0.4,0.071 0.559,0.171c0.165,0.101 0.306,0.255 0.43,0.468c0.3,0.479 0.635,1.018 0.995,1.616c0.364,0.598 0.741,1.208 1.13,1.835c0.394,0.634 0.782,1.232 1.171,1.806c0.388,0.568 0.765,1.066 1.118,1.492c0.183,0.243 0.418,0.497 0.718,0.77c0.301,0.272 0.636,0.497 1.013,0.686c0.353,0.166 0.8,0.302 1.348,0.409c0.547,0.106 1.142,0.183 1.771,0.237c0.636,0.047 1.26,0.077 1.872,0.077c0.612,0.006 1.16,-0.012 1.648,-0.048c0.036,-0.029 0.071,-0.106 0.106,-0.219c0.041,-0.112 0.071,-0.242 0.1,-0.379c0.024,-0.142 0.041,-0.266 0.053,-0.373c0.012,-0.112 0.006,-0.177 -0.012,-0.201c-0.47,-0.059 -0.859,-0.118 -1.171,-0.183c-0.312,-0.066 -0.583,-0.154 -0.818,-0.267c-0.236,-0.106 -0.471,-0.26 -0.706,-0.456c-0.236,-0.189 -0.518,-0.45 -0.836,-0.763c-0.353,-0.356 -0.742,-0.8 -1.172,-1.327c-0.429,-0.532 -0.871,-1.101 -1.318,-1.711c-0.453,-0.609 -0.889,-1.219 -1.301,-1.823c-0.418,-0.604 -0.789,-1.154 -1.112,-1.658c-0.324,-0.503 -0.571,-0.911 -0.748,-1.225c-0.017,-0.042 -0.023,-0.095 -0.023,-0.154c0.006,-0.065 0.023,-0.107 0.058,-0.13c0.766,-0.32 1.454,-0.723 2.066,-1.214c0.618,-0.491 1.107,-1.089 1.472,-1.788c0.365,-0.704 0.553,-1.527 0.559,-2.469c0,-1.065 -0.253,-2.001 -0.753,-2.812c-0.501,-0.817 -1.236,-1.456 -2.213,-1.918c-0.978,-0.462 -2.178,-0.698 -3.603,-0.704c-0.618,0 -1.253,0.006 -1.907,0.017c-0.653,0.012 -1.353,0.024 -2.095,0.036c-0.736,0.012 -1.548,0.018 -2.425,0.018c-0.184,0 -0.386,-0.002 -0.607,-0.006c4.911,-21.803 24.392,-38.089 47.679,-38.089Zm-43.223,39.409c1.024,0.006 1.89,0.219 2.596,0.639c0.7,0.421 1.23,1.013 1.595,1.776c0.359,0.764 0.542,1.664 0.542,2.7c-0.006,0.752 -0.089,1.38 -0.253,1.883c-0.171,0.503 -0.389,0.911 -0.666,1.219c-0.276,0.302 -0.582,0.539 -0.918,0.699c-0.218,0.106 -0.529,0.189 -0.936,0.248c-0.406,0.06 -0.877,0.101 -1.412,0.119c-0.536,0.018 -1.107,0.012 -1.713,-0.012c-0.053,0 -0.106,-0.024 -0.147,-0.071c-0.041,-0.047 -0.065,-0.106 -0.065,-0.178l0,-2.877c0,-0.9 0.006,-1.717 0.006,-2.451c0.006,-0.734 0.012,-1.356 0.023,-1.865c0.012,-0.509 0.024,-0.882 0.042,-1.119c0.006,-0.094 0.029,-0.201 0.082,-0.307c0.053,-0.107 0.106,-0.184 0.165,-0.225c0.1,-0.048 0.212,-0.083 0.347,-0.113c0.13,-0.024 0.259,-0.041 0.388,-0.053c0.13,-0.006 0.236,-0.012 0.324,-0.012Zm13.774,-0.284c0.37,0.035 0.706,0.077 1.018,0.13c0.306,0.053 0.588,0.118 0.853,0.19c0.236,0.065 0.418,0.153 0.554,0.266c0.135,0.106 0.241,0.266 0.306,0.474c0.065,0.207 0.106,0.497 0.129,0.858c0.018,0.272 0.036,0.645 0.047,1.113c0.012,0.474 0.024,1.018 0.036,1.628c0.005,0.616 0.011,1.267 0.017,1.966c0.006,0.692 0.006,1.397 0.006,2.113c0,2.013 0,3.742 -0.012,5.18c-0.011,1.445 -0.041,2.558 -0.094,3.345c-0.012,0.397 -0.053,0.723 -0.135,0.965c-0.077,0.249 -0.188,0.438 -0.342,0.569c-0.153,0.13 -0.347,0.224 -0.582,0.278c-0.265,0.071 -0.624,0.142 -1.066,0.207c-0.447,0.071 -0.959,0.13 -1.548,0.184c-0.035,0.065 -0.059,0.177 -0.07,0.337c-0.012,0.154 -0.012,0.314 0,0.474c0.011,0.165 0.035,0.284 0.07,0.361c0.595,0 1.23,-0.012 1.913,-0.03c0.683,-0.018 1.378,-0.035 2.084,-0.047c0.712,-0.018 1.401,-0.03 2.078,-0.03c1.248,0 2.431,0.012 3.549,0.036c1.124,0.023 2.201,0.047 3.237,0.071c1.036,0.023 2.049,0.035 3.032,0.035c0.523,0 0.912,-0.023 1.183,-0.071c0.265,-0.041 0.447,-0.106 0.559,-0.189c0.106,-0.089 0.182,-0.19 0.235,-0.308c0.112,-0.231 0.236,-0.527 0.359,-0.882c0.13,-0.349 0.253,-0.734 0.383,-1.143c0.123,-0.408 0.241,-0.811 0.353,-1.208c0.106,-0.402 0.206,-0.763 0.283,-1.089c0.082,-0.32 0.141,-0.574 0.176,-0.758c-0.053,-0.071 -0.165,-0.148 -0.33,-0.225c-0.158,-0.071 -0.323,-0.136 -0.494,-0.177c-0.17,-0.048 -0.3,-0.071 -0.377,-0.059c-0.176,0.408 -0.365,0.811 -0.571,1.207c-0.2,0.403 -0.412,0.776 -0.623,1.125c-0.212,0.349 -0.43,0.645 -0.642,0.9c-0.236,0.29 -0.471,0.515 -0.7,0.675c-0.23,0.154 -0.501,0.26 -0.825,0.32c-0.323,0.065 -0.741,0.1 -1.265,0.106c-0.453,0 -0.918,-0.006 -1.389,-0.018c-0.471,-0.011 -0.924,-0.029 -1.354,-0.053c-0.429,-0.024 -0.812,-0.047 -1.148,-0.077c-0.329,-0.029 -0.588,-0.065 -0.771,-0.1c-0.217,-0.06 -0.4,-0.202 -0.547,-0.421c-0.147,-0.225 -0.224,-0.497 -0.23,-0.823c0,-0.432 0,-0.917 -0.006,-1.462c0,-0.539 -0.005,-1.107 -0.005,-1.699c-0.006,-0.592 -0.006,-1.178 -0.006,-1.752c0.006,-0.581 0.011,-1.119 0.017,-1.623c0,-0.041 0.024,-0.1 0.065,-0.171c0.041,-0.065 0.094,-0.107 0.147,-0.113l1.101,0c0.441,0 0.9,0.006 1.383,0.006c0.477,0.006 0.912,0.012 1.313,0.024c0.394,0.012 0.694,0.024 0.9,0.041c0.365,0.042 0.636,0.154 0.813,0.338c0.176,0.183 0.306,0.402 0.388,0.657c0.047,0.142 0.077,0.266 0.1,0.361c0.024,0.095 0.047,0.225 0.083,0.379c0.035,0.154 0.094,0.391 0.17,0.716c0.071,0.048 0.194,0.077 0.377,0.083c0.188,0.012 0.371,0.006 0.553,-0.018c0.183,-0.017 0.312,-0.053 0.377,-0.1c-0.012,-0.314 -0.024,-0.669 -0.035,-1.06c-0.006,-0.391 -0.018,-0.793 -0.024,-1.208c-0.006,-0.414 -0.012,-0.805 -0.012,-1.178c0,-0.397 0.018,-0.805 0.041,-1.225c0.024,-0.421 0.053,-0.817 0.083,-1.196c0.035,-0.385 0.065,-0.711 0.088,-0.989c-0.065,-0.047 -0.194,-0.089 -0.377,-0.112c-0.188,-0.03 -0.37,-0.042 -0.559,-0.036c-0.188,0.006 -0.323,0.03 -0.406,0.077c-0.053,0.231 -0.1,0.462 -0.147,0.681c-0.047,0.225 -0.1,0.438 -0.171,0.633c-0.1,0.391 -0.235,0.675 -0.418,0.865c-0.182,0.189 -0.453,0.29 -0.818,0.308c-0.3,0.023 -0.659,0.047 -1.089,0.053c-0.423,0.012 -0.871,0.018 -1.336,0.023l-1.33,0c-0.418,-0.005 -0.765,-0.005 -1.048,-0.005c-0.053,0 -0.106,-0.03 -0.147,-0.089c-0.041,-0.053 -0.065,-0.119 -0.065,-0.196c-0.011,-0.716 -0.017,-1.486 -0.023,-2.297c-0.006,-0.817 -0.006,-1.64 0,-2.463c0.006,-0.822 0.012,-1.604 0.023,-2.344c0,-0.065 0.018,-0.142 0.053,-0.237c0.036,-0.094 0.083,-0.183 0.142,-0.26c0.058,-0.077 0.123,-0.125 0.194,-0.142c0.106,-0.018 0.318,-0.024 0.636,-0.036c0.317,-0.006 0.694,-0.012 1.124,-0.017l1.312,0c0.442,0.005 0.848,0.011 1.207,0.017c0.359,0.012 0.63,0.018 0.806,0.036c0.353,0.029 0.654,0.118 0.907,0.278c0.247,0.16 0.453,0.42 0.612,0.787c0.124,0.273 0.229,0.604 0.324,0.989c0.094,0.385 0.17,0.888 0.241,1.498c0.071,0.035 0.194,0.053 0.371,0.059c0.176,0.006 0.353,-0.006 0.53,-0.035c0.182,-0.03 0.3,-0.072 0.37,-0.131c0.03,-0.45 0.059,-0.917 0.1,-1.409c0.036,-0.491 0.083,-0.976 0.13,-1.45c0.047,-0.474 0.1,-0.912 0.159,-1.314c0.053,-0.403 0.112,-0.74 0.176,-1.013c0,-0.035 -0.017,-0.071 -0.041,-0.1c-0.029,-0.024 -0.065,-0.042 -0.1,-0.042c-0.365,0.047 -0.794,0.083 -1.301,0.107c-0.5,0.029 -1.018,0.047 -1.554,0.059c-0.535,0.006 -1.03,0.012 -1.489,0.012l-7.063,0c-0.606,0 -1.224,-0.012 -1.854,-0.03c-0.63,-0.018 -1.224,-0.03 -1.789,-0.047c-0.565,-0.018 -1.06,-0.03 -1.478,-0.03c-0.047,0.042 -0.082,0.142 -0.112,0.302c-0.029,0.16 -0.041,0.32 -0.035,0.485c0.006,0.166 0.03,0.279 0.077,0.35Zm41.955,19.004c-0.212,-0.113 -0.371,-0.213 -0.488,-0.302c-0.112,-0.089 -0.195,-0.178 -0.248,-0.273c-0.053,-0.094 -0.088,-0.207 -0.112,-0.349c-0.005,-0.13 -0.017,-0.349 -0.017,-0.645c-0.006,-0.302 -0.006,-0.639 -0.006,-1.018c0,-0.379 0,-0.752 0.006,-1.119c0,-0.367 0.012,-0.681 0.017,-0.948c0,-0.467 0.024,-0.828 0.083,-1.089c0.053,-0.26 0.147,-0.456 0.271,-0.58c0.129,-0.124 0.306,-0.219 0.529,-0.284l1.095,-0.249c0.036,-0.03 0.065,-0.1 0.083,-0.213c0.017,-0.112 0.023,-0.237 0.029,-0.373c0,-0.136 -0.006,-0.26 -0.018,-0.373c-0.011,-0.112 -0.029,-0.183 -0.058,-0.213c-0.242,0 -0.548,0.012 -0.913,0.03c-0.365,0.017 -0.818,0.029 -1.365,0.047c-0.548,0.018 -1.213,0.029 -1.996,0.029c-0.806,0 -1.571,-0.011 -2.295,-0.035c-0.724,-0.024 -1.378,-0.041 -1.954,-0.059c-0.571,-0.018 -1.042,-0.024 -1.401,-0.012c-0.036,0.047 -0.065,0.148 -0.089,0.314c-0.023,0.16 -0.029,0.325 -0.023,0.497c0.006,0.172 0.029,0.29 0.076,0.361c0.507,0.083 0.942,0.142 1.313,0.178c0.371,0.035 0.706,0.094 1.018,0.177c0.336,0.095 0.595,0.225 0.771,0.391c0.171,0.166 0.295,0.385 0.359,0.651c0.065,0.267 0.1,0.592 0.106,0.983c0.024,0.373 0.036,0.776 0.036,1.208c0.006,0.432 -0.006,0.858 -0.024,1.279c-0.018,0.42 -0.047,0.799 -0.082,1.136c-0.012,0.148 -0.042,0.296 -0.083,0.456c-0.047,0.16 -0.106,0.302 -0.188,0.438c-0.077,0.136 -0.177,0.243 -0.294,0.314c-0.13,0.095 -0.301,0.172 -0.495,0.237c-0.2,0.065 -0.412,0.112 -0.63,0.142c-0.223,0.029 -0.435,0.047 -0.641,0.047c-1.283,-0.006 -2.431,-0.272 -3.438,-0.799c-1.012,-0.527 -1.871,-1.273 -2.578,-2.226c-0.706,-0.959 -1.248,-2.09 -1.618,-3.386c-0.371,-1.303 -0.559,-2.73 -0.559,-4.281c0.005,-1.663 0.182,-3.096 0.535,-4.28c0.359,-1.19 0.854,-2.161 1.495,-2.913c0.642,-0.752 1.395,-1.302 2.26,-1.657c0.866,-0.356 1.813,-0.533 2.843,-0.527c0.989,-0.006 1.89,0.1 2.69,0.307c0.801,0.202 1.495,0.527 2.078,0.971c0.318,0.219 0.583,0.51 0.795,0.871c0.211,0.361 0.382,0.817 0.524,1.373c0.135,0.557 0.253,1.243 0.341,2.054c0.047,0.036 0.135,0.06 0.259,0.066c0.123,0.012 0.259,0.012 0.406,-0.006c0.147,-0.012 0.283,-0.036 0.4,-0.071c0.124,-0.036 0.2,-0.077 0.242,-0.131c0,-0.45 0.017,-0.953 0.053,-1.497c0.035,-0.551 0.088,-1.108 0.147,-1.67c0.059,-0.562 0.129,-1.095 0.2,-1.592c0.076,-0.498 0.153,-0.924 0.235,-1.279c-0.6,-0.053 -1.259,-0.142 -1.977,-0.267c-0.719,-0.124 -1.513,-0.236 -2.378,-0.343c-0.866,-0.107 -1.813,-0.166 -2.849,-0.172c-1.018,0 -1.943,0.054 -2.772,0.148c-0.83,0.101 -1.596,0.249 -2.296,0.444c-0.701,0.196 -1.366,0.439 -1.995,0.723c-1.313,0.562 -2.437,1.326 -3.379,2.297c-0.942,0.965 -1.666,2.101 -2.172,3.398c-0.512,1.302 -0.765,2.729 -0.771,4.286c0.006,2.57 0.506,4.707 1.495,6.418c0.995,1.711 2.431,2.995 4.32,3.848c1.884,0.852 4.174,1.279 6.863,1.279c0.801,-0.006 1.607,-0.06 2.414,-0.154c0.8,-0.101 1.571,-0.225 2.301,-0.373c0.73,-0.148 1.383,-0.296 1.96,-0.45c0.577,-0.148 1.036,-0.273 1.378,-0.373c0.035,-0.042 0.064,-0.119 0.094,-0.225c0.023,-0.113 0.047,-0.225 0.059,-0.344c0.017,-0.112 0.023,-0.195 0.023,-0.248Zm3.355,-19.004c0.418,0.047 0.777,0.101 1.083,0.148c0.306,0.053 0.601,0.118 0.895,0.207c0.329,0.107 0.553,0.29 0.683,0.551c0.129,0.26 0.206,0.586 0.235,0.976c0.024,0.516 0.041,1.09 0.047,1.723c0.012,0.64 0.018,1.386 0.024,2.232l0,5.654c0,0.888 -0.006,1.723 -0.006,2.51c-0.006,0.793 -0.012,1.486 -0.024,2.078c-0.011,0.592 -0.023,1.036 -0.041,1.326c-0.029,0.397 -0.082,0.717 -0.153,0.959c-0.077,0.243 -0.194,0.427 -0.359,0.557c-0.171,0.13 -0.412,0.231 -0.724,0.296c-0.206,0.053 -0.447,0.101 -0.712,0.136c-0.265,0.042 -0.583,0.077 -0.948,0.113c-0.059,0.059 -0.1,0.165 -0.118,0.337c-0.017,0.166 -0.017,0.332 0,0.497c0.018,0.172 0.059,0.279 0.118,0.338c0.412,0 0.86,-0.012 1.33,-0.03c0.471,-0.018 1.025,-0.029 1.666,-0.047c0.636,-0.018 1.419,-0.03 2.337,-0.03c1.124,0 2.089,0.018 2.908,0.042c0.818,0.023 1.53,0.047 2.142,0.065c0.059,-0.048 0.106,-0.148 0.147,-0.314c0.036,-0.16 0.059,-0.326 0.059,-0.497c0,-0.172 -0.018,-0.29 -0.065,-0.361c-0.382,-0.054 -0.753,-0.107 -1.112,-0.166c-0.365,-0.053 -0.665,-0.119 -0.901,-0.19c-0.335,-0.083 -0.582,-0.219 -0.741,-0.396c-0.159,-0.178 -0.259,-0.391 -0.306,-0.628c-0.047,-0.237 -0.077,-0.485 -0.083,-0.752c-0.035,-0.663 -0.053,-1.699 -0.059,-3.09c-0.011,-1.397 -0.011,-3.102 -0.011,-5.115l0,-2.919c0.005,-0.912 0.011,-1.717 0.023,-2.415c0.006,-0.699 0.024,-1.255 0.047,-1.664c0.006,-0.343 0.03,-0.633 0.071,-0.864c0.041,-0.237 0.123,-0.427 0.247,-0.58c0.124,-0.154 0.312,-0.273 0.565,-0.367c0.23,-0.072 0.5,-0.131 0.812,-0.172c0.312,-0.047 0.654,-0.101 1.025,-0.148c0.047,-0.071 0.076,-0.184 0.088,-0.344c0.012,-0.159 0.006,-0.319 -0.012,-0.473c-0.012,-0.16 -0.041,-0.267 -0.076,-0.32c-0.254,0 -0.589,0.012 -1.013,0.03c-0.418,0.017 -0.959,0.029 -1.613,0.047c-0.659,0.018 -1.465,0.03 -2.425,0.03c-1.112,-0.006 -2.089,-0.024 -2.931,-0.054c-0.842,-0.029 -1.536,-0.047 -2.084,-0.053c-0.047,0.053 -0.082,0.16 -0.1,0.32c-0.023,0.154 -0.029,0.314 -0.017,0.473c0.006,0.16 0.035,0.273 0.082,0.344Zm25.675,19.572c-0.789,0 -1.495,-0.112 -2.125,-0.331c-0.63,-0.22 -1.218,-0.539 -1.76,-0.948c-0.659,-0.538 -1.224,-1.184 -1.695,-1.93c-0.471,-0.746 -0.853,-1.551 -1.154,-2.421c-0.294,-0.87 -0.512,-1.758 -0.653,-2.664c-0.141,-0.906 -0.206,-1.788 -0.206,-2.646c-0.006,-1.155 0.094,-2.25 0.3,-3.28c0.2,-1.03 0.524,-1.948 0.966,-2.759c0.441,-0.811 1.018,-1.462 1.736,-1.954c0.394,-0.266 0.836,-0.473 1.324,-0.61c0.489,-0.136 1.001,-0.207 1.537,-0.207c0.753,0 1.436,0.113 2.048,0.344c0.612,0.225 1.189,0.562 1.73,1.006c0.601,0.491 1.119,1.089 1.548,1.782c0.436,0.693 0.789,1.456 1.066,2.285c0.276,0.829 0.482,1.699 0.618,2.605c0.129,0.906 0.194,1.824 0.194,2.741c0.006,1.048 -0.071,2.066 -0.23,3.055c-0.159,0.983 -0.412,1.889 -0.765,2.712c-0.353,0.822 -0.818,1.521 -1.407,2.083c-0.394,0.362 -0.865,0.64 -1.4,0.835c-0.542,0.202 -1.095,0.302 -1.672,0.302" style="fill:#231f20;"/></g></svg>