<svg xmlns="http://www.w3.org/2000/svg" width="46" height="18" viewBox="0 0 12.1708 4.7626" shape-rendering="crispEdges"><g fill="#f7fafc"><path d="M1.852-.0001h1.323v.794H1.852z"/><path d="M0 .7937h5.0271v.7938H0zM6.3502 3.175h4.498v.7938h-4.498zM0 2.381h5.0271v2.3815H0zm1.852-.7936h1.323v.7936H1.852z"/><path d="M7.6732 2.3811h.2644v.794h-.2644zm1.5874 0h.2646v.794h-.2646zm-2.9104-.7936h4.498v.7936h-4.498zm1.323-.7938h.2644v.7938h-.2644zm1.5874 0h.2646v.7938h-.2646zm-1.5874 3.175h.2644v.7939h-.2644zm1.5874 0h.2646v.7939h-.2646z"/><path d="M6.3502-.0001h4.498v.794h-4.498zM5.2917 2.381h1.0585v.794H5.2917zm0-1.5874h1.0585v.7938H5.2917zm0 3.175h1.0585v.7939H5.2917zm5.5566-1.5876h1.0582v.794h-1.0582zm0-1.5874h1.0582v.7938h-1.0582zm0 3.175h1.0582v.7939h-1.0582z"/></g></svg>